<svg xmlns="http://www.w3.org/2000/svg" viewBox="0 0 330 330" width="512" height="512"><g fill="#FFF"><path d="M25.607 190.607l139.39-139.393 139.396 139.393A14.955 14.955 0 0 0 315 195c3.839 0 7.678-1.464 10.606-4.394 5.858-5.858 5.858-15.355 0-21.213l-150.003-150a14.997 14.997 0 0 0-21.213.001l-149.997 150c-5.858 5.858-5.858 15.355 0 21.213 5.858 5.858 15.356 5.858 21.214 0z"/><path d="M175.603 139.393a14.999 14.999 0 0 0-21.213.001l-149.996 150c-5.858 5.858-5.858 15.355 0 21.213 5.857 5.857 15.355 5.858 21.213-.001l139.39-139.393 139.397 139.394A14.95 14.95 0 0 0 315 315c3.839 0 7.678-1.464 10.606-4.394 5.858-5.858 5.858-15.355 0-21.213l-150.003-150z"/></g></svg>